<?xml version="1.0" standalone="no"?>
<!DOCTYPE svg PUBLIC "-//W3C//DTD SVG 1.1//EN" "http://www.w3.org/Graphics/SVG/1.1/DTD/svg11.dtd" >
<svg xmlns="http://www.w3.org/2000/svg" xmlns:xlink="http://www.w3.org/1999/xlink" version="1.1" viewBox="-30 -210 2570 2248">
  <g transform="matrix(1 0 0 -1 0 1638)">
   <path fill="currentColor"
d="M1251 -179q254 0 474 128q222 129 348 348q127 224 127 475q0 254 -127 474q-127 218 -348 347q-219 129 -474 129q-128 0 -245 -31.5t-229 -94.5q-218 -124 -348 -348q-129 -219 -129 -476q0 -255 127 -476q64 -110 150.5 -197t197.5 -150q221 -128 476 -128zM1251 1882
q298 0 555 -149q129 -75 229.5 -176.5t175.5 -230.5q149 -255 149 -554q0 -297 -149 -554q-75 -129 -175.5 -231t-229.5 -177q-257 -149 -555 -149q-301 0 -557 149q-129 75 -230 176t-176 232q-148 257 -148 554q0 300 150 557q75 129 177 229.5t231 175.5q258 148 553 148
zM1137 204v831h227v-831h-227zM1251 1359q123 0 123 -111t-123 -111t-123 111t123 111z" />
  </g>

</svg>
