<svg width="16" height="17" viewBox="0 0 16 17" fill="none" xmlns="http://www.w3.org/2000/svg">
<path id="Vector (Stroke)" fill-rule="evenodd" clip-rule="evenodd" d="M1.5 1.5C1.22386 1.5 1 1.72386 1 2V6C1 6.27614 1.22386 6.5 1.5 6.5H5.5C5.77614 6.5 6 6.27614 6 6V2C6 1.72386 5.77614 1.5 5.5 1.5H1.5ZM7.45058e-09 2C7.45058e-09 1.17157 0.671573 0.5 1.5 0.5H5.5C6.32843 0.5 7 1.17157 7 2V6C7 6.82843 6.32843 7.5 5.5 7.5H1.5C0.671573 7.5 7.45058e-09 6.82843 7.45058e-09 6V2ZM9 4C9 3.72386 9.22386 3.5 9.5 3.5H15.5C15.7761 3.5 16 3.72386 16 4C16 4.27614 15.7761 4.5 15.5 4.5H9.5C9.22386 4.5 9 4.27614 9 4ZM0.146447 9.64645C0.341709 9.45118 0.658291 9.45118 0.853553 9.64645L3.5 12.2929L6.14645 9.64645C6.34171 9.45118 6.65829 9.45118 6.85355 9.64645C7.04882 9.84171 7.04882 10.1583 6.85355 10.3536L4.20711 13L6.85355 15.6464C7.04882 15.8417 7.04882 16.1583 6.85355 16.3536C6.65829 16.5488 6.34171 16.5488 6.14645 16.3536L3.5 13.7071L0.853553 16.3536C0.658291 16.5488 0.341709 16.5488 0.146447 16.3536C-0.0488155 16.1583 -0.0488155 15.8417 0.146447 15.6464L2.79289 13L0.146447 10.3536C-0.0488155 10.1583 -0.0488155 9.84171 0.146447 9.64645ZM9 13C9 12.7239 9.22386 12.5 9.5 12.5H15.5C15.7761 12.5 16 12.7239 16 13C16 13.2761 15.7761 13.5 15.5 13.5H9.5C9.22386 13.5 9 13.2761 9 13Z" fill="#284CE0"/>
</svg>
