<svg width="25" height="24" viewBox="0 0 25 24" fill="none" xmlns="http://www.w3.org/2000/svg">
<rect opacity="0.01" x="0.333374" width="24" height="24" fill="black"/>
<path fill-rule="evenodd" clip-rule="evenodd" d="M9.7435 7.00806L9.83337 7L17.8449 7.00013C17.8658 7.00061 17.8866 7.00239 17.9073 7.00546L17.8334 7L17.8868 7.00282L17.9615 7.01661L18.0244 7.03779L18.1004 7.07719L18.1555 7.11758L18.1869 7.14645L18.2244 7.18834L18.2666 7.25023L18.2958 7.3094L18.3168 7.37186L18.3313 7.45421L18.3334 7.5V15.5C18.3334 15.7761 18.1095 16 17.8334 16C17.5879 16 17.3838 15.8231 17.3414 15.5899L17.3334 15.5V8.706L7.18693 18.8536C6.99167 19.0488 6.67508 19.0488 6.47982 18.8536C6.30625 18.68 6.28697 18.4106 6.42197 18.2157L6.47982 18.1464L16.6254 8H9.83337C9.58791 8 9.38377 7.82312 9.34143 7.58988L9.33337 7.5C9.33337 7.25454 9.51025 7.05039 9.7435 7.00806Z" fill="#284CE0"/>
</svg>
